<svg width="88" height="7" viewBox="0 0 88 7" fill="none" xmlns="http://www.w3.org/2000/svg">
<path d="M0.333333 3.5C0.333333 4.97276 1.52724 6.16667 3 6.16667C4.47276 6.16667 5.66667 4.97276 5.66667 3.5C5.66667 2.02724 4.47276 0.833333 3 0.833333C1.52724 0.833333 0.333333 2.02724 0.333333 3.5ZM82.3333 3.5C82.3333 4.97276 83.5272 6.16667 85 6.16667C86.4728 6.16667 87.6667 4.97276 87.6667 3.5C87.6667 2.02724 86.4728 0.833333 85 0.833333C83.5272 0.833333 82.3333 2.02724 82.3333 3.5ZM3 3.5V4H85V3.5V3H3V3.5Z" fill="white"/>
</svg>
