<svg width="33" height="32" viewBox="0 0 33 32" fill="none" xmlns="http://www.w3.org/2000/svg">
<g clip-path="url(#clip0_1357_1519)">
<path d="M16.5 0C25.3366 0 32.5 7.16344 32.5 16C32.5 24.8366 25.3366 32 16.5 32C7.66344 32 0.5 24.8366 0.5 16C0.5 7.16344 7.66344 0 16.5 0ZM23.041 9.62988C22.4392 9.64048 21.5156 9.9624 17.0723 11.8105C15.516 12.4579 12.4054 13.797 7.74121 15.8291C6.98415 16.1302 6.58717 16.4249 6.55078 16.7129C6.48144 17.266 7.27827 17.4389 8.28027 17.7646C9.09718 18.0302 10.1964 18.3402 10.7676 18.3525C11.2856 18.3636 11.8636 18.1502 12.502 17.7119C16.8577 14.7717 19.1076 13.2846 19.251 13.251C19.3506 13.2284 19.4895 13.2 19.583 13.2832C19.6764 13.3664 19.6671 13.5242 19.6572 13.5664C19.577 13.905 15.484 17.627 15.248 17.8721C14.3478 18.8071 13.3238 19.3799 14.9033 20.4209C16.2702 21.3217 17.0664 21.8962 18.4746 22.8193C19.3743 23.4092 20.0798 24.1088 21.0088 24.0234C21.4363 23.9841 21.8782 23.5817 22.1025 22.3828C22.6326 19.5493 23.6742 13.4101 23.915 10.8799C23.9361 10.6585 23.91 10.3747 23.8887 10.25C23.8674 10.1255 23.8228 9.94773 23.6611 9.81641C23.4696 9.66099 23.1735 9.62761 23.041 9.62988Z" fill="white"/>
</g>
<defs>
<clipPath id="clip0_1357_1519">
<rect width="32" height="32" fill="white" transform="translate(0.5)"/>
</clipPath>
</defs>
</svg>
