<svg width="33" height="32" viewBox="0 0 33 32" fill="none" xmlns="http://www.w3.org/2000/svg">
<g clip-path="url(#clip0_1357_1516)">
<path d="M27.3382 5.05022C30.3382 8.05022 32.1953 11.9788 32.1953 16.2645C32.1953 24.9788 24.9096 32.1217 16.1239 32.1217C13.481 32.1217 10.9096 31.4074 8.55246 30.1931L0.195312 32.3359L2.4096 24.1217C1.05246 21.7645 0.266741 19.0502 0.266741 16.1931C0.266741 7.47879 7.4096 0.335938 16.1239 0.335938C20.4096 0.335938 24.4096 2.05022 27.3382 5.05022ZM16.1239 29.4074C23.4096 29.4074 29.481 23.4788 29.481 16.2645C29.481 12.6931 27.981 9.40737 25.481 6.90737C22.981 4.40737 19.6953 3.05022 16.1953 3.05022C8.9096 3.05022 2.98103 8.97879 2.98103 16.1931C2.98103 18.6931 3.69531 21.1217 4.98103 23.2645L5.33817 23.7645L3.98103 28.6217L8.98103 27.2645L9.4096 27.5502C11.481 28.7645 13.7667 29.4074 16.1239 29.4074ZM23.4096 19.5502C23.7667 19.7645 24.0525 19.8359 24.1239 20.0502C24.2667 20.1931 24.2667 20.9788 23.9096 21.9074C23.5525 22.8359 21.981 23.6931 21.2667 23.7645C19.981 23.9788 18.981 23.9074 16.481 22.7645C12.481 21.0502 9.9096 17.0502 9.69531 16.8359C9.48103 16.5502 8.12388 14.6931 8.12388 12.6931C8.12388 10.7645 9.12388 9.83594 9.48103 9.40737C9.83817 8.97879 10.2667 8.90737 10.5525 8.90737C10.7667 8.90737 11.0525 8.90737 11.2667 8.90737C11.5525 8.90737 11.8382 8.83594 12.1953 9.62165C12.481 10.4074 13.3382 12.3359 13.4096 12.5502C13.481 12.7645 13.5525 12.9788 13.4096 13.2645C12.6953 14.7645 11.8382 14.6931 12.2667 15.4074C13.8382 18.0502 15.3382 18.9788 17.6953 20.1217C18.0525 20.3359 18.2667 20.2645 18.5525 20.0502C18.7667 19.7645 19.5525 18.8359 19.7667 18.4788C20.0525 18.0502 20.3382 18.1217 20.6953 18.2645C21.0525 18.4074 22.981 19.3359 23.4096 19.5502Z" fill="white"/>
</g>
<defs>
<clipPath id="clip0_1357_1516">
<rect width="32" height="32" fill="white" transform="translate(0.5)"/>
</clipPath>
</defs>
</svg>
