<svg width="33" height="32" viewBox="0 0 33 32" fill="none" xmlns="http://www.w3.org/2000/svg">
<g clip-path="url(#clip0_1106_1539)">
<path d="M27.3411 5.04827C30.3411 8.04827 32.1982 11.9768 32.1982 16.2626C32.1982 24.9768 24.9125 32.1197 16.1268 32.1197C13.484 32.1197 10.9125 31.4054 8.55538 30.1911L0.198242 32.334L2.41253 24.1197C1.05539 21.7626 0.269671 19.0483 0.269671 16.1911C0.269671 7.47684 7.41253 0.333984 16.1268 0.333984C20.4125 0.333984 24.4125 2.04827 27.3411 5.04827ZM16.1268 29.4054C23.4125 29.4054 29.484 23.4768 29.484 16.2626C29.484 12.6911 27.984 9.40541 25.484 6.90541C22.984 4.40541 19.6982 3.04827 16.1982 3.04827C8.91253 3.04827 2.98396 8.97684 2.98396 16.1911C2.98396 18.6911 3.69824 21.1197 4.98396 23.2626L5.3411 23.7626L3.98396 28.6197L8.98396 27.2626L9.41253 27.5483C11.484 28.7626 13.7697 29.4054 16.1268 29.4054ZM23.4125 19.5483C23.7697 19.7626 24.0554 19.834 24.1268 20.0483C24.2697 20.1911 24.2697 20.9768 23.9125 21.9054C23.5554 22.834 21.984 23.6911 21.2697 23.7626C19.984 23.9768 18.984 23.9054 16.484 22.7626C12.484 21.0483 9.91253 17.0483 9.69824 16.834C9.48396 16.5483 8.12681 14.6911 8.12681 12.6911C8.12681 10.7626 9.12681 9.83398 9.48396 9.40541C9.8411 8.97684 10.2697 8.90541 10.5554 8.90541C10.7697 8.90541 11.0554 8.90541 11.2697 8.90541C11.5554 8.90541 11.8411 8.83398 12.1982 9.6197C12.484 10.4054 13.3411 12.334 13.4125 12.5483C13.484 12.7626 13.5554 12.9768 13.4125 13.2626C12.6982 14.7626 11.8411 14.6911 12.2697 15.4054C13.8411 18.0483 15.3411 18.9768 17.6982 20.1197C18.0554 20.334 18.2697 20.2626 18.5554 20.0483C18.7697 19.7626 19.5554 18.834 19.7697 18.4768C20.0554 18.0483 20.3411 18.1197 20.6982 18.2626C21.0554 18.4054 22.984 19.334 23.4125 19.5483Z" fill="white"/>
</g>
<defs>
<clipPath id="clip0_1106_1539">
<rect width="32" height="32" fill="white" transform="translate(0.5)"/>
</clipPath>
</defs>
</svg>
