<svg width="16" height="17" viewBox="0 0 16 17" fill="none" xmlns="http://www.w3.org/2000/svg">
<g clip-path="url(#clip0_1410_2260)">
<path d="M8 0.5C12.4183 0.5 16 4.08172 16 8.5C16 12.9183 12.4183 16.5 8 16.5C3.58172 16.5 0 12.9183 0 8.5C0 4.08172 3.58172 0.5 8 0.5ZM11.2715 5.31641C10.9706 5.32171 10.5086 5.48227 8.28711 6.40625C7.50899 6.7299 5.95326 7.39993 3.62109 8.41602C3.24259 8.56657 3.04442 8.71438 3.02637 8.8584C2.99217 9.13462 3.38992 9.22103 3.89062 9.38379C4.29909 9.51657 4.84912 9.67156 5.13477 9.67773C5.39375 9.68321 5.68286 9.57653 6.00195 9.35742C8.17717 7.88909 9.30181 7.14548 9.37598 7.12695C9.42573 7.11566 9.49522 7.10122 9.54199 7.14258C9.58863 7.18403 9.58404 7.26278 9.5791 7.28418C9.53949 7.45305 7.49339 9.31462 7.375 9.4375C6.9249 9.905 6.41251 10.1915 7.20215 10.7119C7.8856 11.1623 8.28418 11.4496 8.98828 11.9111C9.43795 12.206 9.7906 12.5552 10.2549 12.5127C10.4687 12.493 10.6896 12.2919 10.8018 11.6924C11.0668 10.2756 11.5876 7.20656 11.708 5.94141C11.7186 5.83058 11.706 5.68824 11.6953 5.62598C11.6847 5.56372 11.662 5.47482 11.5811 5.40918C11.4854 5.33167 11.3378 5.31532 11.2715 5.31641Z" fill="white"/>
</g>
<defs>
<clipPath id="clip0_1410_2260">
<rect width="16" height="16" fill="white" transform="translate(0 0.5)"/>
</clipPath>
</defs>
</svg>
